<svg xmlns="http://www.w3.org/2000/svg" viewBox="0 0 595.28 497"><defs><style>.cls-1,.cls-5{fill:#fff200;}.cls-1{stroke:#fff200;}.cls-1,.cls-2,.cls-3{stroke-miterlimit:10;}.cls-2{fill:#231f20;}.cls-2,.cls-3{stroke:#231f20;stroke-width:8px;}.cls-3{fill:none;}.cls-4{fill:#f49ec4;}</style></defs><g id="Layer_1" data-name="Layer 1"><circle class="cls-1" cx="305.62" cy="251.5" r="177.75"/></g><g id="eyes"><circle class="cls-2" cx="182.97" cy="194.97" r="11.02"/><circle class="cls-2" cx="419.03" cy="194.97" r="11.02"/><path class="cls-3" d="M282,217.77c-.78,14.94,8.26,27.08,19.3,26.75,10.51-.32,19.77-11.82,20.43-26"/><ellipse class="cls-4" cx="170.89" cy="237.64" rx="23.11" ry="6.91"/><polygon class="cls-5" points="300.47 11.24 266.6 51.05 336.99 51.05 300.47 11.24"/><polygon class="cls-5" points="479.13 66.99 427.5 75.18 480.94 120.99 479.13 66.99"/><polygon class="cls-5" points="122.68 60.76 119.51 112.93 175.79 70.66 122.68 60.76"/><polygon class="cls-5" points="53.4 232.47 93.21 266.34 93.21 195.95 53.4 232.47"/><polygon class="cls-5" points="558.09 241.53 516.48 209.89 520.33 280.18 558.09 241.53"/><polygon class="cls-5" points="306.95 491.75 340.82 451.94 270.43 451.94 306.95 491.75"/><polygon class="cls-5" points="108.22 393.93 160.49 393.84 114.79 340.31 108.22 393.93"/><polygon class="cls-5" points="499.87 426.02 497.84 373.79 446.04 421.45 499.87 426.02"/><ellipse class="cls-4" cx="435.81" cy="237.64" rx="23.11" ry="6.91"/></g></svg>